<?xml version="1.0" encoding="us-ascii" standalone="no"?><svg xmlns="http://www.w3.org/2000/svg" xmlns:xlink="http://www.w3.org/1999/xlink" contentStyleType="text/css" height="1030px" preserveAspectRatio="none" style="width:1592px;height:1030px;background:#ECEFF1;" version="1.1" viewBox="0 0 1592 1030" width="1592px" zoomAndPan="magnify"><defs/><g><rect fill="#ECEFF1" height="1030" style="stroke:none;stroke-width:1.0;" width="1592" x="0" y="0"/><text fill="#000000" font-family="sans-serif" font-size="14" font-weight="bold" lengthAdjust="spacing" textLength="326" x="626" y="24.5332">Diagrama de Despliegue: Sistema MasterBikes</text><!--cluster ClienteBrowser--><g id="cluster_ClienteBrowser"><polygon fill="#E1F5FE" points="529,54.6094,539,44.6094,753,44.6094,753,185.6094,743,195.6094,529,195.6094,529,54.6094" style="stroke:#0277BD;stroke-width:1.0;"/><line style="stroke:#0277BD;stroke-width:1.0;" x1="743" x2="753" y1="54.6094" y2="44.6094"/><line style="stroke:#0277BD;stroke-width:1.0;" x1="529" x2="743" y1="54.6094" y2="54.6094"/><line style="stroke:#0277BD;stroke-width:1.0;" x1="743" x2="743" y1="54.6094" y2="195.6094"/><text fill="#37474F" font-family="sans-serif" font-size="14" font-style="italic" lengthAdjust="spacing" textLength="58" x="608" y="72.1426">&#171;Device&#187;</text><text fill="#263238" font-family="sans-serif" font-size="14" font-weight="bold" lengthAdjust="spacing" textLength="148" x="563" y="89.752">Cliente Web Browser</text></g><!--cluster Plataforma AWS--><g id="cluster_Plataforma AWS"><polygon fill="#CFD8DC" points="16,266.6094,26,256.6094,1285,256.6094,1285,1003.1094,1275,1013.1094,16,1013.1094,16,266.6094" style="stroke:#546E7A;stroke-width:1.0;"/><line style="stroke:#546E7A;stroke-width:1.0;" x1="1275" x2="1285" y1="266.6094" y2="256.6094"/><line style="stroke:#546E7A;stroke-width:1.0;" x1="16" x2="1275" y1="266.6094" y2="266.6094"/><line style="stroke:#546E7A;stroke-width:1.0;" x1="1275" x2="1275" y1="266.6094" y2="1013.1094"/><text fill="#263238" font-family="sans-serif" font-size="14" font-weight="bold" lengthAdjust="spacing" textLength="109" x="592" y="284.1426">Plataforma AWS</text></g><!--cluster EC2_App_Servers--><g id="cluster_EC2_App_Servers"><polygon fill="#E8F5E9" points="40,315.6094,50,305.6094,1261,305.6094,1261,784.1094,1251,794.1094,40,794.1094,40,315.6094" style="stroke:#2E7D32;stroke-width:1.0;"/><line style="stroke:#2E7D32;stroke-width:1.0;" x1="1251" x2="1261" y1="315.6094" y2="305.6094"/><line style="stroke:#2E7D32;stroke-width:1.0;" x1="40" x2="1251" y1="315.6094" y2="315.6094"/><line style="stroke:#2E7D32;stroke-width:1.0;" x1="1251" x2="1251" y1="315.6094" y2="794.1094"/><text fill="#37474F" font-family="sans-serif" font-size="14" font-style="italic" lengthAdjust="spacing" textLength="126" x="583.5" y="333.1426">&#171;ApplicationServer&#187;</text><text fill="#263238" font-family="sans-serif" font-size="14" font-weight="bold" lengthAdjust="spacing" textLength="252" x="520.5" y="350.752">Servidores de Aplicaci&#243;n (AWS EC2)</text></g><!--cluster APIGatewayNode--><g id="cluster_APIGatewayNode"><polygon fill="#FFF9C4" points="529,382.6094,539,372.6094,754,372.6094,754,513.6094,744,523.6094,529,523.6094,529,382.6094" style="stroke:#FBC02D;stroke-width:1.0;"/><line style="stroke:#FBC02D;stroke-width:1.0;" x1="744" x2="754" y1="382.6094" y2="372.6094"/><line style="stroke:#FBC02D;stroke-width:1.0;" x1="529" x2="744" y1="382.6094" y2="382.6094"/><line style="stroke:#FBC02D;stroke-width:1.0;" x1="744" x2="744" y1="382.6094" y2="523.6094"/><text fill="#37474F" font-family="sans-serif" font-size="14" font-style="italic" lengthAdjust="spacing" textLength="105" x="585" y="400.1426">&#171;GatewayNode&#187;</text><text fill="#263238" font-family="sans-serif" font-size="14" font-weight="bold" lengthAdjust="spacing" textLength="149" x="563" y="417.752">API Gateway Instance</text></g><!--cluster MicroserviceClusterNode--><g id="cluster_MicroserviceClusterNode"><polygon fill="#CFD8DC" points="64,665.1094,74,655.1094,1237,655.1094,1237,760.1094,1227,770.1094,64,770.1094,64,665.1094" style="stroke:#546E7A;stroke-width:1.0;"/><line style="stroke:#546E7A;stroke-width:1.0;" x1="1227" x2="1237" y1="665.1094" y2="655.1094"/><line style="stroke:#546E7A;stroke-width:1.0;" x1="64" x2="1227" y1="665.1094" y2="665.1094"/><line style="stroke:#546E7A;stroke-width:1.0;" x1="1227" x2="1227" y1="665.1094" y2="770.1094"/><text fill="#263238" font-family="sans-serif" font-size="14" font-weight="bold" lengthAdjust="spacing" textLength="223" x="535" y="682.6426">Cluster de Microservicios (EC2)</text></g><!--cluster RDS_Server--><g id="cluster_RDS_Server"><polygon fill="#E3F2FD" points="234,836.1094,244,826.1094,1093,826.1094,1093,971.1094,1083,981.1094,234,981.1094,234,836.1094" style="stroke:#1565C0;stroke-width:1.0;"/><line style="stroke:#1565C0;stroke-width:1.0;" x1="1083" x2="1093" y1="836.1094" y2="826.1094"/><line style="stroke:#1565C0;stroke-width:1.0;" x1="234" x2="1083" y1="836.1094" y2="836.1094"/><line style="stroke:#1565C0;stroke-width:1.0;" x1="1083" x2="1083" y1="836.1094" y2="981.1094"/><text fill="#37474F" font-family="sans-serif" font-size="14" font-style="italic" lengthAdjust="spacing" textLength="118" x="600.5" y="853.6426">&#171;DatabaseServer&#187;</text><text fill="#263238" font-family="sans-serif" font-size="14" font-weight="bold" lengthAdjust="spacing" textLength="266" x="526.5" y="871.252">Servidor de Base de Datos (AWS RDS)</text></g><!--cluster ShimanoNode--><g id="cluster_ShimanoNode"><polygon fill="#B0BEC5" points="1309,655.6094,1319,645.6094,1575,645.6094,1575,751.6094,1565,761.6094,1309,761.6094,1309,655.6094" style="stroke:#455A64;stroke-width:1.0;"/><line style="stroke:#455A64;stroke-width:1.0;" x1="1565" x2="1575" y1="655.6094" y2="645.6094"/><line style="stroke:#455A64;stroke-width:1.0;" x1="1309" x2="1565" y1="655.6094" y2="655.6094"/><line style="stroke:#455A64;stroke-width:1.0;" x1="1565" x2="1565" y1="655.6094" y2="761.6094"/><text fill="#37474F" font-family="sans-serif" font-size="14" font-style="italic" lengthAdjust="spacing" textLength="147" x="1364.5" y="673.1426">&#171;ExternalSystemNode&#187;</text><text fill="#263238" font-family="sans-serif" font-size="14" font-weight="bold" lengthAdjust="spacing" textLength="190" x="1343" y="690.752">Servidor Externo SHIMANO</text></g><!--entity FrontendApp--><g id="elem_FrontendApp"><rect fill="#E0F2F1" height="75.8281" rx="2.5" ry="2.5" style="stroke:#78909C;stroke-width:0.5;" width="171" x="555.5" y="103.6094"/><polygon fill="#E0F2F1" points="709.5,108.6094,709.5,122.6094,721.5,122.6094,721.5,114.6094,715.5,108.6094,709.5,108.6094" style="stroke:#78909C;stroke-width:0.5;"/><line style="stroke:#78909C;stroke-width:0.5;" x1="715.5" x2="715.5" y1="108.6094" y2="114.6094"/><line style="stroke:#78909C;stroke-width:0.5;" x1="721.5" x2="715.5" y1="114.6094" y2="114.6094"/><text fill="#37474F" font-family="sans-serif" font-size="14" font-style="italic" lengthAdjust="spacing" textLength="71" x="600.5" y="131.1426">&#171;WebApp&#187;</text><text fill="#37474F" font-family="sans-serif" font-size="14" lengthAdjust="spacing" textLength="112" x="580" y="148.752">FrontendWebApp</text><text fill="#37474F" font-family="sans-serif" font-size="14" lengthAdjust="spacing" textLength="141" x="565.5" y="166.3613">(SPA: HTML, CSS, JS)</text></g><!--entity GatewayJar--><g id="elem_GatewayJar"><rect fill="#E8EAF6" height="75.8281" rx="2.5" ry="2.5" style="stroke:#78909C;stroke-width:0.5;" width="181" x="550.5" y="431.6094"/><polygon fill="#E8EAF6" points="714.5,436.6094,714.5,450.6094,726.5,450.6094,726.5,442.6094,720.5,436.6094,714.5,436.6094" style="stroke:#78909C;stroke-width:0.5;"/><line style="stroke:#78909C;stroke-width:0.5;" x1="720.5" x2="720.5" y1="436.6094" y2="442.6094"/><line style="stroke:#78909C;stroke-width:0.5;" x1="726.5" x2="720.5" y1="442.6094" y2="442.6094"/><text fill="#37474F" font-family="sans-serif" font-size="14" font-style="italic" lengthAdjust="spacing" textLength="82" x="595" y="459.1426">&#171;ServiceJar&#187;</text><text fill="#37474F" font-family="sans-serif" font-size="14" lengthAdjust="spacing" textLength="122" x="575" y="476.752">gateway-service.jar</text><text fill="#37474F" font-family="sans-serif" font-size="14" lengthAdjust="spacing" textLength="151" x="560.5" y="494.3613">(Spring Cloud Gateway)</text></g><!--entity AuthJar--><g id="elem_AuthJar"><rect fill="#E8EAF6" height="58.2188" rx="2.5" ry="2.5" style="stroke:#78909C;stroke-width:0.5;" width="128" x="305" y="696.1094"/><polygon fill="#E8EAF6" points="416,701.1094,416,715.1094,428,715.1094,428,707.1094,422,701.1094,416,701.1094" style="stroke:#78909C;stroke-width:0.5;"/><line style="stroke:#78909C;stroke-width:0.5;" x1="422" x2="422" y1="701.1094" y2="707.1094"/><line style="stroke:#78909C;stroke-width:0.5;" x1="428" x2="422" y1="707.1094" y2="707.1094"/><text fill="#37474F" font-family="sans-serif" font-size="14" font-style="italic" lengthAdjust="spacing" textLength="82" x="323" y="723.6426">&#171;ServiceJar&#187;</text><text fill="#37474F" font-family="sans-serif" font-size="14" lengthAdjust="spacing" textLength="98" x="315" y="741.252">auth-service.jar</text></g><!--entity BicicletasJar--><g id="elem_BicicletasJar"><rect fill="#E8EAF6" height="58.2188" rx="2.5" ry="2.5" style="stroke:#78909C;stroke-width:0.5;" width="158" x="468" y="696.1094"/><polygon fill="#E8EAF6" points="609,701.1094,609,715.1094,621,715.1094,621,707.1094,615,701.1094,609,701.1094" style="stroke:#78909C;stroke-width:0.5;"/><line style="stroke:#78909C;stroke-width:0.5;" x1="615" x2="615" y1="701.1094" y2="707.1094"/><line style="stroke:#78909C;stroke-width:0.5;" x1="621" x2="615" y1="707.1094" y2="707.1094"/><text fill="#37474F" font-family="sans-serif" font-size="14" font-style="italic" lengthAdjust="spacing" textLength="82" x="501" y="723.6426">&#171;ServiceJar&#187;</text><text fill="#37474F" font-family="sans-serif" font-size="14" lengthAdjust="spacing" textLength="128" x="478" y="741.252">bicicletas-service.jar</text></g><!--entity PedidosJar--><g id="elem_PedidosJar"><rect fill="#E8EAF6" height="58.2188" rx="2.5" ry="2.5" style="stroke:#78909C;stroke-width:0.5;" width="150" x="661" y="696.1094"/><polygon fill="#E8EAF6" points="794,701.1094,794,715.1094,806,715.1094,806,707.1094,800,701.1094,794,701.1094" style="stroke:#78909C;stroke-width:0.5;"/><line style="stroke:#78909C;stroke-width:0.5;" x1="800" x2="800" y1="701.1094" y2="707.1094"/><line style="stroke:#78909C;stroke-width:0.5;" x1="806" x2="800" y1="707.1094" y2="707.1094"/><text fill="#37474F" font-family="sans-serif" font-size="14" font-style="italic" lengthAdjust="spacing" textLength="82" x="690" y="723.6426">&#171;ServiceJar&#187;</text><text fill="#37474F" font-family="sans-serif" font-size="14" lengthAdjust="spacing" textLength="120" x="671" y="741.252">pedidos-service.jar</text></g><!--entity NotificacionesJar--><g id="elem_NotificacionesJar"><rect fill="#E8EAF6" height="58.2188" rx="2.5" ry="2.5" style="stroke:#78909C;stroke-width:0.5;" width="186" x="846" y="696.1094"/><polygon fill="#E8EAF6" points="1015,701.1094,1015,715.1094,1027,715.1094,1027,707.1094,1021,701.1094,1015,701.1094" style="stroke:#78909C;stroke-width:0.5;"/><line style="stroke:#78909C;stroke-width:0.5;" x1="1021" x2="1021" y1="701.1094" y2="707.1094"/><line style="stroke:#78909C;stroke-width:0.5;" x1="1027" x2="1021" y1="707.1094" y2="707.1094"/><text fill="#37474F" font-family="sans-serif" font-size="14" font-style="italic" lengthAdjust="spacing" textLength="82" x="893" y="723.6426">&#171;ServiceJar&#187;</text><text fill="#37474F" font-family="sans-serif" font-size="14" lengthAdjust="spacing" textLength="156" x="856" y="741.252">notificaciones-service.jar</text></g><!--entity ReportesJar--><g id="elem_ReportesJar"><rect fill="#E8EAF6" height="58.2188" rx="2.5" ry="2.5" style="stroke:#78909C;stroke-width:0.5;" width="153" x="1067.5" y="696.1094"/><polygon fill="#E8EAF6" points="1203.5,701.1094,1203.5,715.1094,1215.5,715.1094,1215.5,707.1094,1209.5,701.1094,1203.5,701.1094" style="stroke:#78909C;stroke-width:0.5;"/><line style="stroke:#78909C;stroke-width:0.5;" x1="1209.5" x2="1209.5" y1="701.1094" y2="707.1094"/><line style="stroke:#78909C;stroke-width:0.5;" x1="1215.5" x2="1209.5" y1="707.1094" y2="707.1094"/><text fill="#37474F" font-family="sans-serif" font-size="14" font-style="italic" lengthAdjust="spacing" textLength="82" x="1098" y="723.6426">&#171;ServiceJar&#187;</text><text fill="#37474F" font-family="sans-serif" font-size="14" lengthAdjust="spacing" textLength="123" x="1077.5" y="741.252">reportes-service.jar</text></g><!--entity ProveedorJar--><g id="elem_ProveedorJar"><rect fill="#E8EAF6" height="58.2188" rx="2.5" ry="2.5" style="stroke:#78909C;stroke-width:0.5;" width="190" x="80" y="696.1094"/><polygon fill="#E8EAF6" points="253,701.1094,253,715.1094,265,715.1094,265,707.1094,259,701.1094,253,701.1094" style="stroke:#78909C;stroke-width:0.5;"/><line style="stroke:#78909C;stroke-width:0.5;" x1="259" x2="259" y1="701.1094" y2="707.1094"/><line style="stroke:#78909C;stroke-width:0.5;" x1="265" x2="259" y1="707.1094" y2="707.1094"/><text fill="#37474F" font-family="sans-serif" font-size="14" font-style="italic" lengthAdjust="spacing" textLength="82" x="129" y="723.6426">&#171;ServiceJar&#187;</text><text fill="#37474F" font-family="sans-serif" font-size="14" lengthAdjust="spacing" textLength="160" x="90" y="741.252">integracion-proveedor.jar</text></g><!--entity AuthDBSchema--><g id="elem_AuthDBSchema"><path d="M504,903.1094 C504,893.1094 554,893.1094 554,893.1094 C554,893.1094 604,893.1094 604,903.1094 L604,947.3281 C604,957.3281 554,957.3281 554,957.3281 C554,957.3281 504,957.3281 504,947.3281 L504,903.1094 " fill="#FFFFFF" style="stroke:#607D8B;stroke-width:0.5;"/><path d="M504,903.1094 C504,913.1094 554,913.1094 554,913.1094 C554,913.1094 604,913.1094 604,903.1094 " fill="none" style="stroke:#607D8B;stroke-width:0.5;"/><text fill="#000000" font-family="sans-serif" font-size="14" font-style="italic" lengthAdjust="spacing" textLength="67" x="520.5" y="931.6426">&#171;Schema&#187;</text><text fill="#000000" font-family="sans-serif" font-size="14" lengthAdjust="spacing" textLength="80" x="514" y="949.252">AuthSchema</text></g><!--entity BicicletasDBSchema--><g id="elem_BicicletasDBSchema"><path d="M639,903.1094 C639,893.1094 704,893.1094 704,893.1094 C704,893.1094 769,893.1094 769,903.1094 L769,947.3281 C769,957.3281 704,957.3281 704,957.3281 C704,957.3281 639,957.3281 639,947.3281 L639,903.1094 " fill="#FFFFFF" style="stroke:#607D8B;stroke-width:0.5;"/><path d="M639,903.1094 C639,913.1094 704,913.1094 704,913.1094 C704,913.1094 769,913.1094 769,903.1094 " fill="none" style="stroke:#607D8B;stroke-width:0.5;"/><text fill="#000000" font-family="sans-serif" font-size="14" font-style="italic" lengthAdjust="spacing" textLength="67" x="670.5" y="931.6426">&#171;Schema&#187;</text><text fill="#000000" font-family="sans-serif" font-size="14" lengthAdjust="spacing" textLength="110" x="649" y="949.252">BicicletasSchema</text></g><!--entity PedidosDBSchema--><g id="elem_PedidosDBSchema"><path d="M804,903.1094 C804,893.1094 865,893.1094 865,893.1094 C865,893.1094 926,893.1094 926,903.1094 L926,947.3281 C926,957.3281 865,957.3281 865,957.3281 C865,957.3281 804,957.3281 804,947.3281 L804,903.1094 " fill="#FFFFFF" style="stroke:#607D8B;stroke-width:0.5;"/><path d="M804,903.1094 C804,913.1094 865,913.1094 865,913.1094 C865,913.1094 926,913.1094 926,903.1094 " fill="none" style="stroke:#607D8B;stroke-width:0.5;"/><text fill="#000000" font-family="sans-serif" font-size="14" font-style="italic" lengthAdjust="spacing" textLength="67" x="831.5" y="931.6426">&#171;Schema&#187;</text><text fill="#000000" font-family="sans-serif" font-size="14" lengthAdjust="spacing" textLength="102" x="814" y="949.252">PedidosSchema</text></g><!--entity ReportesDBSchema--><g id="elem_ReportesDBSchema"><path d="M961,903.1094 C961,893.1094 1015,893.1094 1015,893.1094 C1015,893.1094 1069,893.1094 1069,903.1094 L1069,947.3281 C1069,957.3281 1015,957.3281 1015,957.3281 C1015,957.3281 961,957.3281 961,947.3281 L961,903.1094 " fill="#FFFFFF" style="stroke:#607D8B;stroke-width:0.5;"/><path d="M961,903.1094 C961,913.1094 1015,913.1094 1015,913.1094 C1015,913.1094 1069,913.1094 1069,903.1094 " fill="none" style="stroke:#607D8B;stroke-width:0.5;"/><text fill="#000000" font-family="sans-serif" font-size="14" font-style="italic" lengthAdjust="spacing" textLength="67" x="981.5" y="931.6426">&#171;Schema&#187;</text><text fill="#000000" font-family="sans-serif" font-size="14" lengthAdjust="spacing" textLength="88" x="971" y="949.252">ReportesData</text></g><g id="elem_GMN20"><path d="M277.5,895.6094 L277.5,954.6641 L468.5,954.6641 L468.5,905.6094 L458.5,895.6094 L277.5,895.6094 " fill="#FFF9C4" style="stroke:#FBC02D;stroke-width:0.5;"/><path d="M458.5,895.6094 L458.5,905.6094 L468.5,905.6094 L458.5,895.6094 " fill="#FFF9C4" style="stroke:#FBC02D;stroke-width:1.0;"/><text fill="#37474F" font-family="sans-serif" font-size="13" lengthAdjust="spacing" textLength="143" x="297" y="914.1045">Instancia Oracle en RDS</text><text fill="#37474F" font-family="sans-serif" font-size="13" lengthAdjust="spacing" textLength="155" x="291" y="930.4561">conteniendo los esquemas</text><text fill="#37474F" font-family="sans-serif" font-size="13" lengthAdjust="spacing" textLength="170" x="283.5" y="946.8076">l&#243;gicos de los microservicios.</text></g><!--entity ShimanoAPI_Artifact--><g id="elem_ShimanoAPI_Artifact"><rect fill="#FFFFFF" height="40.6094" rx="2.5" ry="2.5" style="stroke:#78909C;stroke-width:0.5;" width="157" x="1325.5" y="704.6094"/><polygon fill="#FFFFFF" points="1465.5,709.6094,1465.5,723.6094,1477.5,723.6094,1477.5,715.6094,1471.5,709.6094,1465.5,709.6094" style="stroke:#78909C;stroke-width:0.5;"/><line style="stroke:#78909C;stroke-width:0.5;" x1="1471.5" x2="1471.5" y1="709.6094" y2="715.6094"/><line style="stroke:#78909C;stroke-width:0.5;" x1="1477.5" x2="1471.5" y1="715.6094" y2="715.6094"/><text fill="#37474F" font-family="sans-serif" font-size="14" lengthAdjust="spacing" textLength="127" x="1335.5" y="732.1426">SHIMANO REST API</text></g><!--link RDS_Server to GMN20--><g id="link_RDS_Server_GMN20"><path d="M242.38,925.1094 C244.84,925.1094 259.12,925.1094 277.41,925.1094 " fill="none" id="RDS_Server-GMN20" style="stroke:#1E88E5;stroke-width:1.0;stroke-dasharray:7.0,7.0;"/></g><!--link FrontendApp to GatewayJar--><g id="link_FrontendApp_GatewayJar"><path d="M641,179.8794 C641,243.0794 641,362.5394 641,425.5894 " fill="none" id="FrontendApp-to-GatewayJar" style="stroke:#1E88E5;stroke-width:1.0;"/><polygon fill="#1E88E5" points="641,431.5894,645,422.5894,641,426.5894,637,422.5894,641,431.5894" style="stroke:#1E88E5;stroke-width:1.0;"/><text fill="#000000" font-family="sans-serif" font-size="13" lengthAdjust="spacing" textLength="133" x="507" y="302.2245">HTTPS (API Requests)</text></g><!--link GatewayJar to AuthJar--><g id="link_GatewayJar_AuthJar"><path d="M550.43,483.1094 C471.3,483.1094 369,483.1094 369,483.1094 C369,483.1094 369,625.5494 369,689.9194 " fill="none" id="GatewayJar-to-AuthJar" style="stroke:#1E88E5;stroke-width:1.0;"/><polygon fill="#1E88E5" points="369,695.9194,373,686.9194,369,690.9194,365,686.9194,369,695.9194" style="stroke:#1E88E5;stroke-width:1.0;"/><text fill="#000000" font-family="sans-serif" font-size="13" lengthAdjust="spacing" textLength="118" x="250" y="495.2945">HTTP (AuthN/AuthZ)</text></g><!--link GatewayJar to BicicletasJar--><g id="link_GatewayJar_BicicletasJar"><path d="M588.25,507.8594 C588.25,559.2294 588.25,643.3994 588.25,689.7594 " fill="none" id="GatewayJar-to-BicicletasJar" style="stroke:#1E88E5;stroke-width:1.0;"/><polygon fill="#1E88E5" points="588.25,695.7594,592.25,686.7594,588.25,690.7594,584.25,686.7594,588.25,695.7594" style="stroke:#1E88E5;stroke-width:1.0;"/><text fill="#000000" font-family="sans-serif" font-size="13" lengthAdjust="spacing" textLength="157" x="430.25" y="598.3045">HTTP (Servicios Bicicletas)</text></g><!--link GatewayJar to PedidosJar--><g id="link_GatewayJar_PedidosJar"><path d="M696.25,507.8594 C696.25,559.2294 696.25,643.3994 696.25,689.7594 " fill="none" id="GatewayJar-to-PedidosJar" style="stroke:#1E88E5;stroke-width:1.0;"/><polygon fill="#1E88E5" points="696.25,695.7594,700.25,686.7594,696.25,690.7594,692.25,686.7594,696.25,695.7594" style="stroke:#1E88E5;stroke-width:1.0;"/><text fill="#000000" font-family="sans-serif" font-size="13" lengthAdjust="spacing" textLength="147" x="548.25" y="616.3045">HTTP (Servicios Pedidos)</text></g><!--link GatewayJar to NotificacionesJar--><g id="link_GatewayJar_NotificacionesJar"><path d="M731.62,483.1094 C819.3,483.1094 939,483.1094 939,483.1094 C939,483.1094 939,625.5494 939,689.9194 " fill="none" id="GatewayJar-to-NotificacionesJar" style="stroke:#1E88E5;stroke-width:1.0;"/><polygon fill="#1E88E5" points="939,695.9194,943,686.9194,939,690.9194,935,686.9194,939,695.9194" style="stroke:#1E88E5;stroke-width:1.0;"/><text fill="#000000" font-family="sans-serif" font-size="13" lengthAdjust="spacing" textLength="181" x="757" y="482.3245">HTTP (Servicios Notificaciones)</text></g><!--link GatewayJar to ReportesJar--><g id="link_GatewayJar_ReportesJar"><path d="M731.51,457.1094 C876.32,457.1094 1144,457.1094 1144,457.1094 C1144,457.1094 1144,620.4594 1144,689.9194 " fill="none" id="GatewayJar-to-ReportesJar" style="stroke:#1E88E5;stroke-width:1.0;"/><polygon fill="#1E88E5" points="1144,695.9194,1148,686.9194,1144,690.9194,1140,686.9194,1144,695.9194" style="stroke:#1E88E5;stroke-width:1.0;"/><text fill="#000000" font-family="sans-serif" font-size="13" lengthAdjust="spacing" textLength="152" x="904.16" y="453.6045">HTTP (Servicios Reportes)</text></g><!--link GatewayJar to ProveedorJar--><g id="link_GatewayJar_ProveedorJar"><path d="M550.32,457.1094 C414.76,457.1094 175,457.1094 175,457.1094 C175,457.1094 175,620.4594 175,689.9194 " fill="none" id="GatewayJar-to-ProveedorJar" style="stroke:#1E88E5;stroke-width:1.0;"/><polygon fill="#1E88E5" points="175,695.9194,179,686.9194,175,690.9194,171,686.9194,175,695.9194" style="stroke:#1E88E5;stroke-width:1.0;"/><text fill="#000000" font-family="sans-serif" font-size="13" lengthAdjust="spacing" textLength="163" x="79.26" y="453.6045">HTTP (Servicios Integraci&#243;n)</text></g><!--link AuthJar to AuthDBSchema--><g id="link_AuthJar_AuthDBSchema"><path d="M369,754.3294 C369,795.6294 369,866.1094 369,866.1094 C369,866.1094 554,866.1094 554,866.1094 C554,866.1094 554,873.0694 554,886.8494 " fill="none" id="AuthJar-to-AuthDBSchema" style="stroke:#1E88E5;stroke-width:1.0;stroke-dasharray:7.0,7.0;"/><polygon fill="#1E88E5" points="554,892.8494,558,883.8494,554,887.8494,550,883.8494,554,892.8494" style="stroke:#1E88E5;stroke-width:1.0;"/><text fill="#000000" font-family="sans-serif" font-size="13" lengthAdjust="spacing" textLength="61" x="356.98" y="862.6045">JDBC/JPA</text></g><!--link BicicletasJar to BicicletasDBSchema--><g id="link_BicicletasJar_BicicletasDBSchema"><path d="M626.11,725.1094 C639.94,725.1094 650,725.1094 650,725.1094 C650,725.1094 650,830.4394 650,886.9794 " fill="none" id="BicicletasJar-to-BicicletasDBSchema" style="stroke:#1E88E5;stroke-width:1.0;stroke-dasharray:7.0,7.0;"/><polygon fill="#1E88E5" points="650,892.9794,654,883.9794,650,887.9794,646,883.9794,650,892.9794" style="stroke:#1E88E5;stroke-width:1.0;"/><text fill="#000000" font-family="sans-serif" font-size="13" lengthAdjust="spacing" textLength="61" x="588" y="793.5945">JDBC/JPA</text></g><!--link PedidosJar to PedidosDBSchema--><g id="link_PedidosJar_PedidosDBSchema"><path d="M807.5,754.1894 C807.5,791.1394 807.5,848.6794 807.5,887.0094 " fill="none" id="PedidosJar-to-PedidosDBSchema" style="stroke:#1E88E5;stroke-width:1.0;stroke-dasharray:7.0,7.0;"/><polygon fill="#1E88E5" points="807.5,893.0094,811.5,884.0094,807.5,888.0094,803.5,884.0094,807.5,893.0094" style="stroke:#1E88E5;stroke-width:1.0;"/><text fill="#000000" font-family="sans-serif" font-size="13" lengthAdjust="spacing" textLength="61" x="745.5" y="820.0945">JDBC/JPA</text></g><!--link ReportesJar to ReportesDBSchema--><g id="link_ReportesJar_ReportesDBSchema"><path d="M1067.48,725.1094 C1057,725.1094 1049.75,725.1094 1049.75,725.1094 C1049.75,725.1094 1049.75,830.4394 1049.75,886.9794 " fill="none" id="ReportesJar-to-ReportesDBSchema" style="stroke:#1E88E5;stroke-width:1.0;stroke-dasharray:7.0,7.0;"/><polygon fill="#1E88E5" points="1049.75,892.9794,1053.75,883.9794,1049.75,887.9794,1045.75,883.9794,1049.75,892.9794" style="stroke:#1E88E5;stroke-width:1.0;"/><text fill="#000000" font-family="sans-serif" font-size="13" lengthAdjust="spacing" textLength="61" x="1050.75" y="796.6745">JDBC/JPA</text></g><!--link ReportesJar to BicicletasDBSchema--><g id="link_ReportesJar_BicicletasDBSchema"><path d="M1119.5,754.3594 C1119.5,778.9494 1119.5,810.1094 1119.5,810.1094 C1119.5,810.1094 715,810.1094 715,810.1094 C715,810.1094 715,853.0494 715,887.0794 " fill="none" id="ReportesJar-to-BicicletasDBSchema" style="stroke:#1E88E5;stroke-width:1.0;stroke-dasharray:7.0,7.0;"/><polygon fill="#1E88E5" points="715,893.0794,719,884.0794,715,888.0794,711,884.0794,715,893.0794" style="stroke:#1E88E5;stroke-width:1.0;"/><text fill="#000000" font-family="sans-serif" font-size="13" lengthAdjust="spacing" textLength="116" x="904.64" y="806.6045">JDBC/JPA (Lectura)</text></g><!--link ReportesJar to PedidosDBSchema--><g id="link_ReportesJar_PedidosDBSchema"><path d="M1170,754.2094 C1170,787.6894 1170,838.1094 1170,838.1094 C1170,838.1094 886,838.1094 886,838.1094 C886,838.1094 886,861.9794 886,886.7094 " fill="none" id="ReportesJar-to-PedidosDBSchema" style="stroke:#1E88E5;stroke-width:1.0;stroke-dasharray:7.0,7.0;"/><polygon fill="#1E88E5" points="886,892.7094,890,883.7094,886,887.7094,882,883.7094,886,892.7094" style="stroke:#1E88E5;stroke-width:1.0;"/><text fill="#000000" font-family="sans-serif" font-size="13" lengthAdjust="spacing" textLength="116" x="925.65" y="834.6045">JDBC/JPA (Lectura)</text></g><!--link ProveedorJar to ShimanoAPI_Artifact--><g id="link_ProveedorJar_ShimanoAPI_Artifact"><path d="M256.5,754.2794 C256.5,768.2994 256.5,782.1094 256.5,782.1094 C256.5,782.1094 1404,782.1094 1404,782.1094 C1404,782.1094 1404,768.0194 1404,751.6894 " fill="none" id="ProveedorJar-to-ShimanoAPI_Artifact" style="stroke:#1E88E5;stroke-width:1.0;"/><polygon fill="#1E88E5" points="1404,745.6894,1400,754.6894,1404,750.6894,1408,754.6894,1404,745.6894" style="stroke:#1E88E5;stroke-width:1.0;"/><text fill="#000000" font-family="sans-serif" font-size="13" lengthAdjust="spacing" textLength="135" x="698.54" y="778.6045">HTTPS (API Proveedor)</text></g><!--SRC=[bLVTJjj85BxFKupOYu9K88I4X8eYERP3Wo2DC6sbrKhLr1x2R1rFEXvJsDK-KYzMVGHURC-P6IVZsAxO20LdPivt_hypLbobZ0ISBYHTKfB0CyjNAMUBWhqX4SyLW-Lh2l_bc7zbUQVpYhnz-vRCFeGVFJBthi9RZrnxj-7DrBiYGHXDBsRaEhnyV-C57jcDUARe8y-9BwHa2vxGFHJlv5zvjgAWatoXyTU554MM-28LalmM-k5aSWHg9Y9B15cmZ4cQEX89kwD5gcxPe_9IliYMB5CaXYycdLDNF6FgQSM8aEfUWDc7scwjXELaJ7Ec5muT6KzAyTsQSHIEHk40pKXPV4_1ySsvJ2X6_kuGGDaoVZAPdFfzt14oOR9S7VlTNW2hu9AoQyV3_h0_wVm36cP28Rwrq8kLjl09C02OIWu_ThqY-rOmq4p0xYAd6KcuPB6Yw3qZz5ln_ECrxYrffZZ4B2Fmjw8fKoRa5KSfwj0UDFi07xFdUZ7eduH3JwyxVlHEZdl78xsAlbZhtGGRBvxQr8NTIG_oNLFNxGvFJyRRwhhTVj3lhjLD96onBFd4ldYh5TdzCDrR1t8c4e5XzAI2YW6x88nXhdWA3s6-Ol7pZpiUYxmUdamap9hxYXWHg5C8BcuJfN4H9SEdfZBm9y4ey3jj0MmANmJbomHMR5EHL6qxEmlO0u_P-Nbp5OP7ay4axA3rtbz5IkAKIc6CJtY-4ZbN_470CiVYsJQpsniEnq63KeXmocEgkCWY9X-OjFfHpnp1Gx_NQCveCWXFjJaV6IXoxSa1Y2Uwu663QWKnV_wPRLlL2uV1SQ_1gWkgs7Vw1DbcZZrEWeqYbkfqWPQKM16ISm9wSuO74l6_-xaXBLHHB9JcyDm4KMDuZg41WassbiLJKuGmFkDWsvIZmSd0xpQO4Zv2GMKqZPwGmvterFIFk-FG7sZz5nAescYrrCyqZDXMsnyCl9C-g7L9HIgEVTRAZ8PLAZZ3qMdtr6zXnZhqsPbfzDR2BxdabOtWRYoMWY0hDCDXeg2HBgbiXHo5tkJ4G2BMaiTIw9p4tB121Jgn5G3GyJq4SBi6a3PO3bI-fFbXC0OUUVwvW9h7yi-KnFfigvFc29vqXy5ehES8qjXaEeCfN0vc7BNbn0xO7S-uxYrKqi2E-hJclXtVK0E1S9Cn34LmU8U0aNRTBf4j8bfNm4wLb__8TgEvzuQykxs-UatyA7fDBgCz3LWUHFRUP1SBonWoJo6WTq92ANgVeXsj1lfa8OiLnQOmuREjWi4jKwFv14Gw862WeWhLU1kgWUdwAKBoCYR1msUmuhDfufpyYlZqbu7tvjCriKopND4iPXeFDXoE8isCfGj49FBvX-vuKcIKS8F2DR62pGdOa50YO7FjfYbAjD_HRn4twLYOzNqZnGx-f19pif8yMq1EHP6KeYO4zWUq1QdsY1syZjj-Mk3b44DwxRO63jioeiu6i-Tdcn6Bhj-m5UG5IWkI209hptFZEjm4OMhW5JBJIQuqOLvpbnRgtlNLf04MMnnoPRy0P8otfho6C5vllG1d1Uc23gk1pCtw2n3WbidlT8sAZDM1PfNjLZnebkT_AUgiAP1i1PVZ1kWRk_428-5-p-3T0OtONqdnm1XqsCRPSgMracmrLJjKZpgyR-7x2DKNDwnmu4LJJ_1WkvEqpjoIYA4n8V66ZDTr48pD0jdGTATMY71Hi4mDH6q81cMtq3T5uUZOBBPh2hUmDp9R6cp5EF1svUNOLc0Bk4mpHh2IzvS3bnAM461YIBwuLqJSEKcoHJDTqzbxA1XuxOHcDgCEFx6U0p1Tu8xc3acxRNbUKtUT0GxqAP3LDkYYMa-GTL6P6v4WqRlfjJTxhpsExZcyC0bBpArtfaszMs5o4qQtIBak2lpyxDcJgDyENX_wyr4tQVNz6eQlBvP5jXv3Ulww0t5_Fn7Vi_rpbuznYjxE8-W8uFiR1a7ALRu7gi9qFKpnFJ2sq1XOB6LtF7GSFAi3b9G4QJJWAwUwdntYz-zxpH9LGYpbelK4sEot03XaM9UscosYTVgh8rJFj02vP5U7A7VR7709hYuzBTaHqeilfbkrKBslmE0lDdLlh_jbKWuEpglCzOPS1cF_y7BkTQffm9CD_EESTwAEXxVPn3dfnWQFrWZY5sT_QGFPlMAnAYJTgycrc-C8RMA9ZLD_NQdaPLzp4cIheK-h_RGMs-ly1m00]--></g></svg>