<?xml version="1.0" encoding="us-ascii" standalone="no"?><svg xmlns="http://www.w3.org/2000/svg" xmlns:xlink="http://www.w3.org/1999/xlink" contentStyleType="text/css" height="1873px" preserveAspectRatio="none" style="width:3077px;height:1873px;background:#ECEFF1;" version="1.1" viewBox="0 0 3077 1873" width="3077px" zoomAndPan="magnify"><defs/><g><rect fill="#ECEFF1" height="1873" style="stroke:none;stroke-width:1.0;" width="3077" x="0" y="0"/><text fill="#000000" font-family="sans-serif" font-size="14" font-weight="bold" lengthAdjust="spacing" textLength="482" x="1296" y="34.5332">Diagrama de Actividad: Proceso de Venta de Producto con Despacho</text><rect fill="none" height="22.6406" style="stroke:none;stroke-width:1.0;" width="3044" x="15" y="51.0645"/><ellipse cx="174" cy="88.7051" fill="#27AE60" rx="10" ry="10" style="stroke:#222222;stroke-width:1.0;"/><rect fill="#FFFFFF" height="35.0938" rx="12.5" ry="12.5" style="stroke:#546E7A;stroke-width:0.5;" width="192" x="78" y="118.7051"/><text fill="#263238" font-family="sans-serif" font-size="12" lengthAdjust="spacing" textLength="172" x="88" y="141.1621">Iniciar Sesi&#243;n (Si es necesario)</text><rect fill="#FFFFFF" height="35.0938" rx="12.5" ry="12.5" style="stroke:#546E7A;stroke-width:0.5;" width="201" x="73.5" y="173.7988"/><text fill="#263238" font-family="sans-serif" font-size="12" lengthAdjust="spacing" textLength="181" x="83.5" y="196.2559">Navegar y Seleccionar Productos</text><rect fill="#FFFFFF" height="35.0938" rx="12.5" ry="12.5" style="stroke:#546E7A;stroke-width:0.5;" width="239" x="54.5" y="228.8926"/><text fill="#263238" font-family="sans-serif" font-size="12" lengthAdjust="spacing" textLength="219" x="64.5" y="251.3496">A&#241;adir Productos al Carrito de Compras</text><rect fill="#FFFFFF" height="35.0938" rx="12.5" ry="12.5" style="stroke:#546E7A;stroke-width:0.5;" width="217" x="65.5" y="353.041"/><text fill="#263238" font-family="sans-serif" font-size="12" lengthAdjust="spacing" textLength="197" x="75.5" y="375.498">Confirmar Compra y Datos de Env&#237;o</text><rect fill="#FFFFFF" height="35.0938" rx="12.5" ry="12.5" style="stroke:#546E7A;stroke-width:0.5;" width="306" x="21" y="1783.9863"/><text fill="#263238" font-family="sans-serif" font-size="12" lengthAdjust="spacing" textLength="286" x="31" y="1806.4434">Visualizar Estado del Pedido / Recibir Notificaciones</text><ellipse cx="174" cy="1850.0801" fill="none" rx="11" ry="11" style="stroke:#222222;stroke-width:1.0;"/><ellipse cx="174" cy="1850.0801" fill="#222222" rx="6" ry="6" style="stroke:#222222;stroke-width:1.0;"/><line style="stroke:#000000;stroke-width:1.5;" x1="15" x2="15" y1="51.0645" y2="1861.0801"/><path d="M919,273.9863 L919,299.5137 L899,303.5137 L919,307.5137 L919,333.041 A0,0 0 0 0 919,333.041 L1170,333.041 A0,0 0 0 0 1170,333.041 L1170,283.9863 L1160,273.9863 L919,273.9863 A0,0 0 0 0 919,273.9863 " fill="#FFF9C4" style="stroke:#FBC02D;stroke-width:0.5;"/><path d="M1160,273.9863 L1160,283.9863 L1170,283.9863 L1160,273.9863 " fill="#FFF9C4" style="stroke:#FBC02D;stroke-width:0.5;"/><text fill="#37474F" font-family="sans-serif" font-size="13" lengthAdjust="spacing" textLength="131" x="974.5" y="292.4814">Cliente revisa el carrito</text><text fill="#37474F" font-family="sans-serif" font-size="13" lengthAdjust="spacing" textLength="181" x="949.5" y="308.833">y procede a finalizar la compra.</text><text fill="#37474F" font-family="sans-serif" font-size="13" lengthAdjust="spacing" textLength="230" x="925" y="325.1846">Se pueden solicitar datos de env&#237;o aqu&#237;.</text><rect fill="#FFFFFF" height="35.0938" rx="12.5" ry="12.5" style="stroke:#546E7A;stroke-width:0.5;" width="298" x="601" y="285.9668"/><text fill="#263238" font-family="sans-serif" font-size="12" lengthAdjust="spacing" textLength="278" x="611" y="308.4238">Mostrar Carrito y Solicitar Confirmaci&#243;n de Compra</text><rect fill="#FFFFFF" height="35.0938" rx="12.5" ry="12.5" style="stroke:#546E7A;stroke-width:0.5;" width="297" x="601.5" y="408.1348"/><text fill="#263238" font-family="sans-serif" font-size="12" lengthAdjust="spacing" textLength="277" x="611.5" y="430.5918">Enviar Solicitud de Creaci&#243;n de Pedido al Backend</text><rect fill="#FFFFFF" height="35.0938" rx="12.5" ry="12.5" style="stroke:#546E7A;stroke-width:0.5;" width="254" x="337" y="1639.7988"/><text fill="#263238" font-family="sans-serif" font-size="12" lengthAdjust="spacing" textLength="234" x="347" y="1662.2559">Recibir Actualizaci&#243;n de Estado del Pedido</text><rect fill="#FFFFFF" height="35.0938" rx="12.5" ry="12.5" style="stroke:#546E7A;stroke-width:0.5;" width="226" x="351" y="1694.8926"/><text fill="#263238" font-family="sans-serif" font-size="12" lengthAdjust="spacing" textLength="206" x="361" y="1717.3496">Mostrar "Pedido Entregado" al Cliente</text><rect fill="#FFFFFF" height="35.0938" rx="12.5" ry="12.5" style="stroke:#546E7A;stroke-width:0.5;" width="382" x="897.5" y="846.6973"/><text fill="#263238" font-family="sans-serif" font-size="12" lengthAdjust="spacing" textLength="362" x="907.5" y="869.1543">Recibir Informaci&#243;n de Stock Insuficiente (desde Pedidos-Service)</text><rect fill="#FFFFFF" height="35.0938" rx="12.5" ry="12.5" style="stroke:#546E7A;stroke-width:0.5;" width="273" x="952" y="916.791"/><text fill="#263238" font-family="sans-serif" font-size="12" lengthAdjust="spacing" textLength="253" x="962" y="939.248">Mostrar Mensaje "Stock Insuficiente" al Cliente</text><line style="stroke:#000000;stroke-width:1.5;" x1="331" x2="331" y1="51.0645" y2="1861.0801"/><rect fill="#FFFFFF" height="35.0938" rx="12.5" ry="12.5" style="stroke:#546E7A;stroke-width:0.5;" width="232" x="1483.75" y="463.2285"/><text fill="#263238" font-family="sans-serif" font-size="12" lengthAdjust="spacing" textLength="212" x="1493.75" y="485.6855">Recibir Consulta de Stock para Pedido</text><polygon fill="#E1F5FE" points="1467.25,518.3223,1732.25,518.3223,1744.25,530.3223,1732.25,542.3223,1467.25,542.3223,1455.25,530.3223,1467.25,518.3223" style="stroke:#0277BD;stroke-width:0.5;"/><text fill="#263238" font-family="sans-serif" font-size="11" lengthAdjust="spacing" textLength="265" x="1467.25" y="534.8232">&#191;Todos los Productos del Pedido con Stock Suficiente?</text><text fill="#000000" font-family="sans-serif" font-size="11" lengthAdjust="spacing" textLength="9" x="1446.25" y="527.9053">S&#237;</text><text fill="#000000" font-family="sans-serif" font-size="11" lengthAdjust="spacing" textLength="13" x="1744.25" y="527.9053">No</text><rect fill="#FFFFFF" height="35.0938" rx="12.5" ry="12.5" style="stroke:#546E7A;stroke-width:0.5;" width="239" x="1325.5" y="552.3223"/><text fill="#263238" font-family="sans-serif" font-size="12" lengthAdjust="spacing" textLength="219" x="1335.5" y="574.7793">Reservar/Descontar Stock de Productos</text><rect fill="#FFFFFF" height="35.0938" rx="12.5" ry="12.5" style="stroke:#546E7A;stroke-width:0.5;" width="311" x="1289.5" y="607.416"/><text fill="#263238" font-family="sans-serif" font-size="12" lengthAdjust="spacing" textLength="291" x="1299.5" y="629.873">Confirmar Disponibilidad de Stock a Pedidos-Service</text><rect fill="#FFFFFF" height="35.0938" rx="12.5" ry="12.5" style="stroke:#546E7A;stroke-width:0.5;" width="268" x="1620.5" y="552.3223"/><text fill="#263238" font-family="sans-serif" font-size="12" lengthAdjust="spacing" textLength="248" x="1630.5" y="574.7793">Informar Stock Insuficiente a Pedidos-Service</text><polygon fill="#E1F5FE" points="1599.75,648.5098,1611.75,660.5098,1599.75,672.5098,1587.75,660.5098,1599.75,648.5098" style="stroke:#0277BD;stroke-width:0.5;"/><line style="stroke:#000000;stroke-width:1.5;" x1="1283.5" x2="1283.5" y1="51.0645" y2="1861.0801"/><rect fill="#FFFFFF" height="35.0938" rx="12.5" ry="12.5" style="stroke:#546E7A;stroke-width:0.5;" width="238" x="2274" y="692.5098"/><text fill="#263238" font-family="sans-serif" font-size="12" lengthAdjust="spacing" textLength="218" x="2284" y="714.9668">Recibir Solicitud de Creaci&#243;n de Pedido</text><rect fill="#FFFFFF" height="35.0938" rx="12.5" ry="12.5" style="stroke:#546E7A;stroke-width:0.5;" width="290" x="2248" y="747.6035"/><text fill="#263238" font-family="sans-serif" font-size="12" lengthAdjust="spacing" textLength="270" x="2258" y="770.0605">Solicitar Verificaci&#243;n de Stock a Bicicletas-Service</text><polygon fill="#E1F5FE" points="2290,802.6973,2496,802.6973,2508,814.6973,2496,826.6973,2290,826.6973,2278,814.6973,2290,802.6973" style="stroke:#0277BD;stroke-width:0.5;"/><text fill="#263238" font-family="sans-serif" font-size="11" lengthAdjust="spacing" textLength="206" x="2290" y="819.1982">&#191;Stock Confirmado por Bicicletas-Service?</text><text fill="#000000" font-family="sans-serif" font-size="11" lengthAdjust="spacing" textLength="9" x="2269" y="812.2803">S&#237;</text><text fill="#000000" font-family="sans-serif" font-size="11" lengthAdjust="spacing" textLength="104" x="2508" y="812.2803">No, Stock Insuficiente</text><path d="M2179.5,846.6973 L2179.5,872.2246 L2159.5,876.2246 L2179.5,880.2246 L2179.5,905.752 A0,0 0 0 0 2179.5,905.752 L2520.5,905.752 A0,0 0 0 0 2520.5,905.752 L2520.5,856.6973 L2510.5,846.6973 L2179.5,846.6973 A0,0 0 0 0 2179.5,846.6973 " fill="#FFF9C4" style="stroke:#FBC02D;stroke-width:0.5;"/><path d="M2510.5,846.6973 L2510.5,856.6973 L2520.5,856.6973 L2510.5,846.6973 " fill="#FFF9C4" style="stroke:#FBC02D;stroke-width:0.5;"/><text fill="#37474F" font-family="sans-serif" font-size="13" lengthAdjust="spacing" textLength="157" x="2267" y="865.1924">Se genera un ID de pedido.</text><text fill="#37474F" font-family="sans-serif" font-size="13" lengthAdjust="spacing" textLength="320" x="2185.5" y="881.5439">Estado inicial: "Pedido Creado" o "Pendiente de Pago".</text><text fill="#37474F" font-family="sans-serif" font-size="13" lengthAdjust="spacing" textLength="229" x="2231" y="897.8955">Asumimos pago exitoso para este flujo.</text><rect fill="#FFFFFF" height="35.0938" rx="12.5" ry="12.5" style="stroke:#546E7A;stroke-width:0.5;" width="210" x="1949.5" y="858.6777"/><text fill="#263238" font-family="sans-serif" font-size="12" lengthAdjust="spacing" textLength="190" x="1959.5" y="881.1348">Crear Nuevo Pedido en el Sistema</text><rect fill="#FFFFFF" height="35.0938" rx="12.5" ry="12.5" style="stroke:#546E7A;stroke-width:0.5;" width="282" x="1913.5" y="940.752"/><text fill="#263238" font-family="sans-serif" font-size="12" lengthAdjust="spacing" textLength="262" x="1923.5" y="963.209">Actualizar Estado del Pedido a "En Preparaci&#243;n"</text><path d="M2168,1099.8379 L2168,1133.541 L2148,1137.541 L2168,1141.541 L2168,1175.2441 A0,0 0 0 0 2168,1175.2441 L2426,1175.2441 A0,0 0 0 0 2426,1175.2441 L2426,1109.8379 L2416,1099.8379 L2168,1099.8379 A0,0 0 0 0 2168,1099.8379 " fill="#FFF9C4" style="stroke:#FBC02D;stroke-width:0.5;"/><path d="M2416,1099.8379 L2416,1109.8379 L2426,1109.8379 L2416,1099.8379 " fill="#FFF9C4" style="stroke:#FBC02D;stroke-width:0.5;"/><text fill="#37474F" font-family="sans-serif" font-size="13" lengthAdjust="spacing" textLength="193" x="2196" y="1118.333">Aqu&#237; podr&#237;a haber una integraci&#243;n</text><text fill="#37474F" font-family="sans-serif" font-size="13" lengthAdjust="spacing" textLength="191" x="2197" y="1134.6846">con un m&#243;dulo de log&#237;stica o una</text><text fill="#37474F" font-family="sans-serif" font-size="13" lengthAdjust="spacing" textLength="140" x="2222.5" y="1151.0361">notificaci&#243;n a la bodega.</text><text fill="#37474F" font-family="sans-serif" font-size="13" lengthAdjust="spacing" textLength="237" x="2174" y="1167.3877">Para simplificar, es una actividad interna.</text><rect fill="#FFFFFF" height="35.0938" rx="12.5" ry="12.5" style="stroke:#546E7A;stroke-width:0.5;" width="187" x="1961" y="1119.9941"/><text fill="#263238" font-family="sans-serif" font-size="12" lengthAdjust="spacing" textLength="167" x="1971" y="1142.4512">Marcar Pedido para Despacho</text><rect fill="#FFFFFF" height="35.0938" rx="12.5" ry="12.5" style="stroke:#546E7A;stroke-width:0.5;" width="312" x="1898.5" y="1195.2441"/><text fill="#263238" font-family="sans-serif" font-size="12" lengthAdjust="spacing" textLength="292" x="1908.5" y="1217.7012">Actualizar Estado del Pedido a "Listo para Despacho"</text><rect fill="#FFFFFF" height="35.0938" rx="12.5" ry="12.5" style="stroke:#546E7A;stroke-width:0.5;" width="260" x="1924.5" y="1250.3379"/><text fill="#263238" font-family="sans-serif" font-size="12" lengthAdjust="spacing" textLength="240" x="1934.5" y="1272.7949">Actualizar Estado del Pedido a "En Tr&#225;nsito"</text><rect fill="#FFFFFF" height="35.0938" rx="12.5" ry="12.5" style="stroke:#546E7A;stroke-width:0.5;" width="199" x="1955" y="1419.4238"/><text fill="#263238" font-family="sans-serif" font-size="12" lengthAdjust="spacing" textLength="179" x="1965" y="1441.8809">Recibir Confirmaci&#243;n de Entrega</text><rect fill="#FFFFFF" height="35.0938" rx="12.5" ry="12.5" style="stroke:#546E7A;stroke-width:0.5;" width="254" x="1927.5" y="1474.5176"/><text fill="#263238" font-family="sans-serif" font-size="12" lengthAdjust="spacing" textLength="234" x="1937.5" y="1496.9746">Actualizar Estado del Pedido a "Entregado"</text><polygon fill="#E1F5FE" points="2393,1739.9863,2405,1751.9863,2393,1763.9863,2381,1751.9863,2393,1739.9863" style="stroke:#0277BD;stroke-width:0.5;"/><line style="stroke:#000000;stroke-width:1.5;" x1="1892.5" x2="1892.5" y1="51.0645" y2="1861.0801"/><rect fill="#FFFFFF" height="35.0938" rx="12.5" ry="12.5" style="stroke:#546E7A;stroke-width:0.5;" width="256" x="2794.5" y="995.8457"/><text fill="#263238" font-family="sans-serif" font-size="12" lengthAdjust="spacing" textLength="236" x="2804.5" y="1018.3027">Preparar Email de Confirmaci&#243;n de Pedido</text><path d="M2633.5,1047.1348 L2633.5,1089.8379 A0,0 0 0 0 2633.5,1089.8379 L2771.5,1089.8379 A0,0 0 0 0 2771.5,1089.8379 L2771.5,1072.4863 L2791.5,1068.4863 L2771.5,1064.4863 L2771.5,1057.1348 L2761.5,1047.1348 L2633.5,1047.1348 A0,0 0 0 0 2633.5,1047.1348 " fill="#FFF9C4" style="stroke:#FBC02D;stroke-width:0.5;"/><path d="M2761.5,1047.1348 L2761.5,1057.1348 L2771.5,1057.1348 L2761.5,1047.1348 " fill="#FFF9C4" style="stroke:#FBC02D;stroke-width:0.5;"/><text fill="#37474F" font-family="sans-serif" font-size="13" lengthAdjust="spacing" textLength="117" x="2639.5" y="1065.6299">Incluye ID de pedido</text><text fill="#37474F" font-family="sans-serif" font-size="13" lengthAdjust="spacing" textLength="60" x="2668" y="1081.9814">y detalles.</text><rect fill="#FFFFFF" height="35.0938" rx="12.5" ry="12.5" style="stroke:#546E7A;stroke-width:0.5;" width="262" x="2791.5" y="1050.9395"/><text fill="#263238" font-family="sans-serif" font-size="12" lengthAdjust="spacing" textLength="242" x="2801.5" y="1073.3965">Enviar Email "Pedido Confirmado" al Cliente</text><rect fill="#FFFFFF" height="35.0938" rx="12.5" ry="12.5" style="stroke:#546E7A;stroke-width:0.5;" width="237" x="2804" y="1305.4316"/><text fill="#263238" font-family="sans-serif" font-size="12" lengthAdjust="spacing" textLength="217" x="2814" y="1327.8887">Preparar Email de Notificaci&#243;n de Env&#237;o</text><path d="M2622,1356.7207 L2622,1399.4238 A0,0 0 0 0 2622,1399.4238 L2782,1399.4238 A0,0 0 0 0 2782,1399.4238 L2782,1382.0723 L2802,1378.0723 L2782,1374.0723 L2782,1366.7207 L2772,1356.7207 L2622,1356.7207 A0,0 0 0 0 2622,1356.7207 " fill="#FFF9C4" style="stroke:#FBC02D;stroke-width:0.5;"/><path d="M2772,1356.7207 L2772,1366.7207 L2782,1366.7207 L2772,1356.7207 " fill="#FFF9C4" style="stroke:#FBC02D;stroke-width:0.5;"/><text fill="#37474F" font-family="sans-serif" font-size="13" lengthAdjust="spacing" textLength="75" x="2660" y="1375.2158">Puede incluir</text><text fill="#37474F" font-family="sans-serif" font-size="13" lengthAdjust="spacing" textLength="139" x="2628" y="1391.5674">n&#250;mero de seguimiento.</text><rect fill="#FFFFFF" height="35.0938" rx="12.5" ry="12.5" style="stroke:#546E7A;stroke-width:0.5;" width="241" x="2802" y="1360.5254"/><text fill="#263238" font-family="sans-serif" font-size="12" lengthAdjust="spacing" textLength="221" x="2812" y="1382.9824">Enviar Email "Pedido Enviado" al Cliente</text><rect fill="#FFFFFF" height="35.0938" rx="12.5" ry="12.5" style="stroke:#546E7A;stroke-width:0.5;" width="250" x="2797.5" y="1529.6113"/><text fill="#263238" font-family="sans-serif" font-size="12" lengthAdjust="spacing" textLength="230" x="2807.5" y="1552.0684">Preparar Email de Notificaci&#243;n de Entrega</text><rect fill="#FFFFFF" height="35.0938" rx="12.5" ry="12.5" style="stroke:#546E7A;stroke-width:0.5;" width="254" x="2795.5" y="1584.7051"/><text fill="#263238" font-family="sans-serif" font-size="12" lengthAdjust="spacing" textLength="234" x="2805.5" y="1607.1621">Enviar Email "Pedido Entregado" al Cliente</text><line style="stroke:#000000;stroke-width:1.5;" x1="2617" x2="2617" y1="51.0645" y2="1861.0801"/><line style="stroke:#000000;stroke-width:1.5;" x1="3057.5" x2="3057.5" y1="51.0645" y2="1861.0801"/><line style="stroke:#1E88E5;stroke-width:1.0;" x1="174" x2="174" y1="98.7051" y2="118.7051"/><polygon fill="#1E88E5" points="170,108.7051,174,118.7051,178,108.7051,174,112.7051" style="stroke:#1E88E5;stroke-width:1.0;"/><line style="stroke:#1E88E5;stroke-width:1.0;" x1="174" x2="174" y1="153.7988" y2="173.7988"/><polygon fill="#1E88E5" points="170,163.7988,174,173.7988,178,163.7988,174,167.7988" style="stroke:#1E88E5;stroke-width:1.0;"/><line style="stroke:#1E88E5;stroke-width:1.0;" x1="174" x2="174" y1="208.8926" y2="228.8926"/><polygon fill="#1E88E5" points="170,218.8926,174,228.8926,178,218.8926,174,222.8926" style="stroke:#1E88E5;stroke-width:1.0;"/><line style="stroke:#1E88E5;stroke-width:1.0;" x1="174" x2="174" y1="1819.0801" y2="1839.0801"/><polygon fill="#1E88E5" points="170,1829.0801,174,1839.0801,178,1829.0801,174,1833.0801" style="stroke:#1E88E5;stroke-width:1.0;"/><line style="stroke:#1E88E5;stroke-width:1.0;" x1="464" x2="464" y1="1674.8926" y2="1694.8926"/><polygon fill="#1E88E5" points="460,1684.8926,464,1694.8926,468,1684.8926,464,1688.8926" style="stroke:#1E88E5;stroke-width:1.0;"/><line style="stroke:#1E88E5;stroke-width:1.0;" x1="1088.5" x2="1088.5" y1="881.791" y2="916.791"/><polygon fill="#1E88E5" points="1084.5,906.791,1088.5,916.791,1092.5,906.791,1088.5,910.791" style="stroke:#1E88E5;stroke-width:1.0;"/><line style="stroke:#1E88E5;stroke-width:1.0;" x1="1445" x2="1445" y1="587.416" y2="607.416"/><polygon fill="#1E88E5" points="1441,597.416,1445,607.416,1449,597.416,1445,601.416" style="stroke:#1E88E5;stroke-width:1.0;"/><line style="stroke:#1E88E5;stroke-width:1.0;" x1="1455.25" x2="1445" y1="530.3223" y2="530.3223"/><line style="stroke:#1E88E5;stroke-width:1.0;" x1="1445" x2="1445" y1="530.3223" y2="552.3223"/><polygon fill="#1E88E5" points="1441,542.3223,1445,552.3223,1449,542.3223,1445,546.3223" style="stroke:#1E88E5;stroke-width:1.0;"/><line style="stroke:#1E88E5;stroke-width:1.0;" x1="1744.25" x2="1754.5" y1="530.3223" y2="530.3223"/><line style="stroke:#1E88E5;stroke-width:1.0;" x1="1754.5" x2="1754.5" y1="530.3223" y2="552.3223"/><polygon fill="#1E88E5" points="1750.5,542.3223,1754.5,552.3223,1758.5,542.3223,1754.5,546.3223" style="stroke:#1E88E5;stroke-width:1.0;"/><line style="stroke:#1E88E5;stroke-width:1.0;" x1="1445" x2="1445" y1="642.5098" y2="660.5098"/><line style="stroke:#1E88E5;stroke-width:1.0;" x1="1445" x2="1587.75" y1="660.5098" y2="660.5098"/><polygon fill="#1E88E5" points="1577.75,656.5098,1587.75,660.5098,1577.75,664.5098,1581.75,660.5098" style="stroke:#1E88E5;stroke-width:1.0;"/><line style="stroke:#1E88E5;stroke-width:1.0;" x1="1754.5" x2="1754.5" y1="587.416" y2="660.5098"/><line style="stroke:#1E88E5;stroke-width:1.0;" x1="1754.5" x2="1611.75" y1="660.5098" y2="660.5098"/><polygon fill="#1E88E5" points="1621.75,656.5098,1611.75,660.5098,1621.75,664.5098,1617.75,660.5098" style="stroke:#1E88E5;stroke-width:1.0;"/><line style="stroke:#1E88E5;stroke-width:1.0;" x1="1599.75" x2="1599.75" y1="498.3223" y2="518.3223"/><polygon fill="#1E88E5" points="1595.75,508.3223,1599.75,518.3223,1603.75,508.3223,1599.75,512.3223" style="stroke:#1E88E5;stroke-width:1.0;"/><line style="stroke:#1E88E5;stroke-width:1.0;" x1="2393" x2="2393" y1="727.6035" y2="747.6035"/><polygon fill="#1E88E5" points="2389,737.6035,2393,747.6035,2397,737.6035,2393,741.6035" style="stroke:#1E88E5;stroke-width:1.0;"/><line style="stroke:#1E88E5;stroke-width:1.0;" x1="2054.5" x2="2054.5" y1="893.7715" y2="940.752"/><polygon fill="#1E88E5" points="2050.5,930.752,2054.5,940.752,2058.5,930.752,2054.5,934.752" style="stroke:#1E88E5;stroke-width:1.0;"/><line style="stroke:#1E88E5;stroke-width:1.0;" x1="2054.5" x2="2054.5" y1="1155.0879" y2="1195.2441"/><polygon fill="#1E88E5" points="2050.5,1185.2441,2054.5,1195.2441,2058.5,1185.2441,2054.5,1189.2441" style="stroke:#1E88E5;stroke-width:1.0;"/><line style="stroke:#1E88E5;stroke-width:1.0;" x1="2054.5" x2="2054.5" y1="1230.3379" y2="1250.3379"/><polygon fill="#1E88E5" points="2050.5,1240.3379,2054.5,1250.3379,2058.5,1240.3379,2054.5,1244.3379" style="stroke:#1E88E5;stroke-width:1.0;"/><line style="stroke:#1E88E5;stroke-width:1.0;" x1="2054.5" x2="2054.5" y1="1454.5176" y2="1474.5176"/><polygon fill="#1E88E5" points="2050.5,1464.5176,2054.5,1474.5176,2058.5,1464.5176,2054.5,1468.5176" style="stroke:#1E88E5;stroke-width:1.0;"/><line style="stroke:#1E88E5;stroke-width:1.0;" x1="2278" x2="2054.5" y1="814.6973" y2="814.6973"/><line style="stroke:#1E88E5;stroke-width:1.0;" x1="2054.5" x2="2054.5" y1="814.6973" y2="858.6777"/><polygon fill="#1E88E5" points="2050.5,848.6777,2054.5,858.6777,2058.5,848.6777,2054.5,852.6777" style="stroke:#1E88E5;stroke-width:1.0;"/><line style="stroke:#1E88E5;stroke-width:1.0;" x1="2393" x2="2393" y1="782.6973" y2="802.6973"/><polygon fill="#1E88E5" points="2389,792.6973,2393,802.6973,2397,792.6973,2393,796.6973" style="stroke:#1E88E5;stroke-width:1.0;"/><line style="stroke:#1E88E5;stroke-width:1.0;" x1="2922.5" x2="2922.5" y1="1030.9395" y2="1050.9395"/><polygon fill="#1E88E5" points="2918.5,1040.9395,2922.5,1050.9395,2926.5,1040.9395,2922.5,1044.9395" style="stroke:#1E88E5;stroke-width:1.0;"/><line style="stroke:#1E88E5;stroke-width:1.0;" x1="2922.5" x2="2922.5" y1="1340.5254" y2="1360.5254"/><polygon fill="#1E88E5" points="2918.5,1350.5254,2922.5,1360.5254,2926.5,1350.5254,2922.5,1354.5254" style="stroke:#1E88E5;stroke-width:1.0;"/><line style="stroke:#1E88E5;stroke-width:1.0;" x1="2922.5" x2="2922.5" y1="1564.7051" y2="1584.7051"/><polygon fill="#1E88E5" points="2918.5,1574.7051,2922.5,1584.7051,2926.5,1574.7051,2922.5,1578.7051" style="stroke:#1E88E5;stroke-width:1.0;"/><line style="stroke:#1E88E5;stroke-width:1.0;" x1="174" x2="174" y1="263.9863" y2="268.9863"/><line style="stroke:#1E88E5;stroke-width:1.0;" x1="174" x2="750" y1="268.9863" y2="268.9863"/><line style="stroke:#1E88E5;stroke-width:1.0;" x1="750" x2="750" y1="268.9863" y2="285.9668"/><polygon fill="#1E88E5" points="746,275.9668,750,285.9668,754,275.9668,750,279.9668" style="stroke:#1E88E5;stroke-width:1.0;"/><line style="stroke:#1E88E5;stroke-width:1.0;" x1="750" x2="750" y1="321.0605" y2="338.041"/><line style="stroke:#1E88E5;stroke-width:1.0;" x1="750" x2="174" y1="338.041" y2="338.041"/><line style="stroke:#1E88E5;stroke-width:1.0;" x1="174" x2="174" y1="338.041" y2="353.041"/><polygon fill="#1E88E5" points="170,343.041,174,353.041,178,343.041,174,347.041" style="stroke:#1E88E5;stroke-width:1.0;"/><line style="stroke:#1E88E5;stroke-width:1.0;" x1="174" x2="174" y1="388.1348" y2="393.1348"/><line style="stroke:#1E88E5;stroke-width:1.0;" x1="174" x2="750" y1="393.1348" y2="393.1348"/><line style="stroke:#1E88E5;stroke-width:1.0;" x1="750" x2="750" y1="393.1348" y2="408.1348"/><polygon fill="#1E88E5" points="746,398.1348,750,408.1348,754,398.1348,750,402.1348" style="stroke:#1E88E5;stroke-width:1.0;"/><line style="stroke:#1E88E5;stroke-width:1.0;" x1="750" x2="750" y1="443.2285" y2="448.2285"/><line style="stroke:#1E88E5;stroke-width:1.0;" x1="750" x2="1599.75" y1="448.2285" y2="448.2285"/><line style="stroke:#1E88E5;stroke-width:1.0;" x1="1599.75" x2="1599.75" y1="448.2285" y2="463.2285"/><polygon fill="#1E88E5" points="1595.75,453.2285,1599.75,463.2285,1603.75,453.2285,1599.75,457.2285" style="stroke:#1E88E5;stroke-width:1.0;"/><line style="stroke:#1E88E5;stroke-width:1.0;" x1="1599.75" x2="1599.75" y1="672.5098" y2="677.5098"/><line style="stroke:#1E88E5;stroke-width:1.0;" x1="1599.75" x2="2393" y1="677.5098" y2="677.5098"/><line style="stroke:#1E88E5;stroke-width:1.0;" x1="2393" x2="2393" y1="677.5098" y2="692.5098"/><polygon fill="#1E88E5" points="2389,682.5098,2393,692.5098,2397,682.5098,2393,686.5098" style="stroke:#1E88E5;stroke-width:1.0;"/><line style="stroke:#1E88E5;stroke-width:1.0;" x1="2054.5" x2="2054.5" y1="975.8457" y2="980.8457"/><line style="stroke:#1E88E5;stroke-width:1.0;" x1="2054.5" x2="2922.5" y1="980.8457" y2="980.8457"/><line style="stroke:#1E88E5;stroke-width:1.0;" x1="2922.5" x2="2922.5" y1="980.8457" y2="995.8457"/><polygon fill="#1E88E5" points="2918.5,985.8457,2922.5,995.8457,2926.5,985.8457,2922.5,989.8457" style="stroke:#1E88E5;stroke-width:1.0;"/><line style="stroke:#1E88E5;stroke-width:1.0;" x1="2922.5" x2="2922.5" y1="1086.0332" y2="1094.8379"/><line style="stroke:#1E88E5;stroke-width:1.0;" x1="2922.5" x2="2054.5" y1="1094.8379" y2="1094.8379"/><line style="stroke:#1E88E5;stroke-width:1.0;" x1="2054.5" x2="2054.5" y1="1094.8379" y2="1119.9941"/><polygon fill="#1E88E5" points="2050.5,1109.9941,2054.5,1119.9941,2058.5,1109.9941,2054.5,1113.9941" style="stroke:#1E88E5;stroke-width:1.0;"/><line style="stroke:#1E88E5;stroke-width:1.0;" x1="2054.5" x2="2054.5" y1="1285.4316" y2="1290.4316"/><line style="stroke:#1E88E5;stroke-width:1.0;" x1="2054.5" x2="2922.5" y1="1290.4316" y2="1290.4316"/><line style="stroke:#1E88E5;stroke-width:1.0;" x1="2922.5" x2="2922.5" y1="1290.4316" y2="1305.4316"/><polygon fill="#1E88E5" points="2918.5,1295.4316,2922.5,1305.4316,2926.5,1295.4316,2922.5,1299.4316" style="stroke:#1E88E5;stroke-width:1.0;"/><line style="stroke:#1E88E5;stroke-width:1.0;" x1="2922.5" x2="2922.5" y1="1395.6191" y2="1404.4238"/><line style="stroke:#1E88E5;stroke-width:1.0;" x1="2922.5" x2="2054.5" y1="1404.4238" y2="1404.4238"/><line style="stroke:#1E88E5;stroke-width:1.0;" x1="2054.5" x2="2054.5" y1="1404.4238" y2="1419.4238"/><polygon fill="#1E88E5" points="2050.5,1409.4238,2054.5,1419.4238,2058.5,1409.4238,2054.5,1413.4238" style="stroke:#1E88E5;stroke-width:1.0;"/><line style="stroke:#1E88E5;stroke-width:1.0;" x1="2054.5" x2="2054.5" y1="1509.6113" y2="1514.6113"/><line style="stroke:#1E88E5;stroke-width:1.0;" x1="2054.5" x2="2922.5" y1="1514.6113" y2="1514.6113"/><line style="stroke:#1E88E5;stroke-width:1.0;" x1="2922.5" x2="2922.5" y1="1514.6113" y2="1529.6113"/><polygon fill="#1E88E5" points="2918.5,1519.6113,2922.5,1529.6113,2926.5,1519.6113,2922.5,1523.6113" style="stroke:#1E88E5;stroke-width:1.0;"/><line style="stroke:#1E88E5;stroke-width:1.0;" x1="2922.5" x2="2922.5" y1="1619.7988" y2="1624.7988"/><line style="stroke:#1E88E5;stroke-width:1.0;" x1="2922.5" x2="464" y1="1624.7988" y2="1624.7988"/><line style="stroke:#1E88E5;stroke-width:1.0;" x1="464" x2="464" y1="1624.7988" y2="1639.7988"/><polygon fill="#1E88E5" points="460,1629.7988,464,1639.7988,468,1629.7988,464,1633.7988" style="stroke:#1E88E5;stroke-width:1.0;"/><line style="stroke:#1E88E5;stroke-width:1.0;" x1="2508" x2="2520" y1="814.6973" y2="814.6973"/><line style="stroke:#1E88E5;stroke-width:1.0;" x1="2520" x2="2520" y1="814.6973" y2="832.6973"/><line style="stroke:#1E88E5;stroke-width:1.0;" x1="2520" x2="1088.5" y1="832.6973" y2="832.6973"/><line style="stroke:#1E88E5;stroke-width:1.0;" x1="1088.5" x2="1088.5" y1="832.6973" y2="846.6973"/><polygon fill="#1E88E5" points="1084.5,836.6973,1088.5,846.6973,1092.5,836.6973,1088.5,840.6973" style="stroke:#1E88E5;stroke-width:1.0;"/><line style="stroke:#1E88E5;stroke-width:1.0;" x1="464" x2="464" y1="1729.9863" y2="1751.9863"/><line style="stroke:#1E88E5;stroke-width:1.0;" x1="464" x2="2381" y1="1751.9863" y2="1751.9863"/><polygon fill="#1E88E5" points="2371,1747.9863,2381,1751.9863,2371,1755.9863,2375,1751.9863" style="stroke:#1E88E5;stroke-width:1.0;"/><line style="stroke:#1E88E5;stroke-width:1.0;" x1="1088.5" x2="1088.5" y1="951.8848" y2="1733.9863"/><line style="stroke:#1E88E5;stroke-width:1.0;" x1="1088.5" x2="2423" y1="1733.9863" y2="1733.9863"/><line style="stroke:#1E88E5;stroke-width:1.0;" x1="2423" x2="2423" y1="1733.9863" y2="1751.9863"/><line style="stroke:#1E88E5;stroke-width:1.0;" x1="2423" x2="2405" y1="1751.9863" y2="1751.9863"/><polygon fill="#1E88E5" points="2415,1747.9863,2405,1751.9863,2415,1755.9863,2411,1751.9863" style="stroke:#1E88E5;stroke-width:1.0;"/><line style="stroke:#1E88E5;stroke-width:1.0;" x1="2393" x2="2393" y1="1763.9863" y2="1768.9863"/><line style="stroke:#1E88E5;stroke-width:1.0;" x1="2393" x2="174" y1="1768.9863" y2="1768.9863"/><line style="stroke:#1E88E5;stroke-width:1.0;" x1="174" x2="174" y1="1768.9863" y2="1783.9863"/><polygon fill="#1E88E5" points="170,1773.9863,174,1783.9863,178,1773.9863,174,1777.9863" style="stroke:#1E88E5;stroke-width:1.0;"/><text fill="#000000" font-family="sans-serif" font-size="18" lengthAdjust="spacing" textLength="56" x="145" y="69.75">Cliente</text><text fill="#000000" font-family="sans-serif" font-size="18" lengthAdjust="spacing" textLength="174" x="720.25" y="69.75">FrontendWebApp (UI)</text><text fill="#000000" font-family="sans-serif" font-size="18" lengthAdjust="spacing" textLength="142" x="1517" y="69.75">Bicicletas-Service</text><text fill="#000000" font-family="sans-serif" font-size="18" lengthAdjust="spacing" textLength="131" x="2189.25" y="69.75">Pedidos-Service</text><text fill="#000000" font-family="sans-serif" font-size="18" lengthAdjust="spacing" textLength="178" x="2748.25" y="69.75">Notificaciones-Service</text><!--SRC=[dLVTRjis5BxNKn3UHMqWQztyjWcAGR7bmaEJ1N6QNJCIxR2LI9MKt6RD7cOFa8kXTxiPCB_OlaDAiloJjLs1511vVh_pdNFeGXQfO4F9PuPdd2M2XN4XvpBXoJ6xC3eMLjFfjL25kyPPKiQ5Ph5MR2XipkDR7GHFsAjNhzX5-2Qw2jbPU1LTZiCtR1XDng_FsLdqyo-NuJ1atOc4cK_Iie4sHipWfaUAWNqlLSuH0hlXyVkPqQLA1ZhLXlqG3QBHw3aSZBHAD9i99GnF4Gh-gh1RwbPyA8MAnPcmbiz4cCgPOZ625mOcmbBXcWbBcV0wqHscDEDJ4ID39MOSnpmZbPRTH4nvcHPNubFXRD9zRRSb5XgZFrQ1FuzUl8WEuDL_vqQgMEO8dKJPD1NnBRSjNQKBmJu7Z9skGp0QZLuEzkb6cqIO-lHqqDyTuXJ05DNPtj7-qVue-BqT4_B4rME6yM_TyC7-ONGKhXhUFTpRtNi1mqkx-B-GXGGDFYF9o1OorJwtL5iMSsDa2gIxzgFCKgw4xMqB8UgFTb7UjH3w_QENXwUh8VJx-yFzFiwsWCpO4tRHWXNrKeNHZYK-4cOboC6uGiNLIXwU1yNTLo2g2NY3NE8gqOP2mdu7Y8pwBOEnJJ2UZmv6aNDMaOQyA9renzX4nDBAnHV5kaPdDzeXMjjQWM_twEXqk3NBIO6okLJhe8x2wB3lV5uBsF0-fPAnr5ijH2ffwqS7Uo_tV0KkzRiAcAaaZFrG68tFCGZgsK3TNbqCnTIveOJWTz0mPj8mnedV3r99dNOVM0e-E1wJ5ZTi8Yeq9f9wMWbCAswaxfq4n-TyZbOsx0vIu0IIKVYgfvU5HBZuaoUoTSRGcow8mesyWSvomo4Pt8yCYYXKygku2VESTT-EU_V1yPcsXO7HMWUkT8h82ZhJQYfDnfVPEMidWUjo8sUt1K7e4sD6pANbh2PheN5tXuc1yKk3Yk3agVmDTbEEmKkMda9aWcALa53CDeuJNdYo23LVF62kVIWN3qy31Ey6JD12yxWEqbJHmUUmLe-S-kF9uzwLm3ik4vUZ4Sk4BqGYqIx0b6WE_HEKlNkzUE0il1Y_veNuoEzscCpoTF404xe7NwSm5gUYuFR7YJ1p6IDCDri4cfU-fQPAO_TOJ6CE-pauw5qrAfw20DCMEduV75-YRMwagudJekWcTEK5lRQBRgpcEdx4QY-GKzRzv-yhruqqufR4eJ5JvKjhqHkVb5F4Ir3_r6F5hI2UBXwePH4HPSFDConGA53Tl4vhmO9ur5DOnwMhFIKarPpsi24KKFIIdTByRzLnA6sk5R9DQIej4-NhsPm48iKux9vh5z1OJRKpuCN70AeEVgkkIkGKvLgxk5zY_JLUeF-MpOAv8-5kALC7lKc7aveEO040oKlbcrNI9kQnjq0rM0x-JID1LKhlfaQlAlkc-4RvA1_3painrtNPXVCuaGWjurIvbJvthUfVBgnKR3oaa7Ed-THT8oNoxyOXJuzPfp9BdXBTOPfE0Beh2878PxhZLKDRPZ832NESCV49dMIhAIm8g6bQldDUcX6031fMcTfrYyASTI857WeouX3jO0umTd-kYwfE6iDvMNKOhAHXBkCozGDlRGBMXOTqDJoyR9DhKuUEcyH-J3LOfcBgeHohE2tln0gAxk8EtmLFiK9MqgN8DuZgLwmgf2gR25EFrJBM9M4GynatCQ-dWiUtVlvkgNT8OnTyIWmDl5j-8mmgpnrFPnMgJf2u2afaYoz9cJhVgPuj7l2QYZdA3XqdfXheALPEU-169zXmdWJkxMDfbZefiqFzGVwQ5uhl4CM_bmblGEcrT3idtqYXAxFuGraGikDdsQ3az8AYllLYbgUEpdKgtqsoynLOMclhCPAvmwynx8AMAW03pwJny2_-oeHxJs8FpKgPaQR-Dff5DXSKTBpU4FH4HTgiwvOuBJWw1Hci7oDePYgP1Wqo3fwcrUvejjcgkSYR-yRYEDb4_v_EtWBwqlCZgDVkLd0dprjV5wqqcqoMtjOJSdxhnzZNNDPhRsVBgklzHq1FQ8HBloRnmzFGhqNt8v56FxhnxPZfpOT8rVzrzvfsPjNENLjwAwktYnyMczEejvBmcL2MlnEiiwc_cdgrjDiFm6jf7wV9CrP7kigE4pp3THxy2m00]--></g></svg>